<?xml version="1.0" encoding="utf-8"?>
<!-- Generator: Adobe Illustrator 28.0.0, SVG Export Plug-In . SVG Version: 6.00 Build 0)  -->
<svg version="1.1" id="Layer_1" xmlns="http://www.w3.org/2000/svg" xmlns:xlink="http://www.w3.org/1999/xlink" x="0px" y="0px"
	 viewBox="0 0 151 151" style="enable-background:new 0 0 151 151;" xml:space="preserve">
<style type="text/css">
	.st0{fill:none;stroke:#000000;stroke-linecap:round;stroke-miterlimit:10;}
</style>
<g id="Fills">
	<path d="M86.06,82.98l-7.28-4.2l4.21,7.29C84.18,85.22,85.21,84.18,86.06,82.98z"/>
	<path d="M105.01,76.7c-0.18,4.38-1.33,8.65-3.36,12.51l10.21,5.89c3.04-5.67,4.73-11.98,4.92-18.41L105.01,76.7z"/>
	<path d="M102.61,76.7H90.79c-0.15,1.88-0.64,3.71-1.44,5.41l10.22,5.9C101.39,84.52,102.43,80.65,102.61,76.7z"/>
	<path d="M88.39,76.7h-8.41l7.29,4.21C87.88,79.58,88.25,78.16,88.39,76.7z"/>
	<path d="M99.58,62.98l-10.23,5.91c0.81,1.7,1.3,3.53,1.45,5.41h11.81C102.43,70.36,101.4,66.5,99.58,62.98z"/>
	<path d="M87.26,70.09l-7.28,4.21h8.41C88.26,72.84,87.88,71.43,87.26,70.09z"/>
	<path d="M91.29,50.54c3.7,2.35,6.83,5.48,9.16,9.16l10.21-5.89c-3.39-5.47-8.01-10.09-13.48-13.47L91.29,50.54z"/>
	<path d="M90.09,52.62l-5.91,10.23c1.56,1.07,2.9,2.41,3.96,3.95l10.23-5.9C96.26,57.59,93.43,54.76,90.09,52.62z"/>
	<path d="M82.98,64.94l-4.2,7.28l7.29-4.21C85.22,66.82,84.18,65.78,82.98,64.94z"/>
	<path d="M76.7,45.99c4.38,0.18,8.65,1.33,12.51,3.36l5.89-10.21c-5.67-3.04-11.98-4.73-18.41-4.92L76.7,45.99z"/>
	<path d="M76.7,48.39v11.82c1.88,0.15,3.71,0.64,5.41,1.44l5.9-10.22C84.52,49.61,80.65,48.57,76.7,48.39z"/>
	<path d="M76.7,62.61v8.41l4.21-7.29C79.58,63.12,78.16,62.74,76.7,62.61z"/>
	<path d="M62.98,51.42l5.91,10.23c1.7-0.81,3.53-1.3,5.41-1.45V48.39C70.36,48.57,66.5,49.6,62.98,51.42z"/>
	<path d="M70.09,63.73l4.21,7.28V62.6C72.84,62.74,71.43,63.12,70.09,63.73z"/>
	<path d="M50.54,59.7c2.35-3.7,5.48-6.83,9.16-9.16l-5.89-10.21c-5.47,3.39-10.09,8.01-13.47,13.48L50.54,59.7z"/>
	<path d="M52.62,60.9l10.23,5.91c1.07-1.56,2.41-2.9,3.95-3.96l-5.9-10.23C57.59,54.74,54.76,57.57,52.62,60.9z"/>
	<path d="M64.94,68.01l7.28,4.2l-4.21-7.29C66.82,65.77,65.78,66.81,64.94,68.01z"/>
	<path d="M48.39,74.3h11.82c0.15-1.88,0.64-3.71,1.44-5.41l-10.22-5.9C49.61,66.48,48.57,70.34,48.39,74.3z"/>
	<path d="M62.61,74.3h8.41l-7.29-4.21C63.12,71.42,62.74,72.84,62.61,74.3z"/>
	<path d="M37.07,96.3c-3.25-6.02-5.06-12.75-5.26-19.6H20.04c0.2,8.91,2.54,17.67,6.83,25.49L37.07,96.3z"/>
	<path d="M49.34,89.21c-2.03-3.88-3.17-8.16-3.35-12.52H34.2c0.2,6.44,1.89,12.74,4.94,18.4L49.34,89.21z"/>
	<path d="M51.42,88.01l10.23-5.91c-0.81-1.7-1.3-3.53-1.45-5.41H48.39C48.57,80.63,49.6,84.5,51.42,88.01z"/>
	<path d="M63.73,80.9l7.28-4.21H62.6C62.74,78.15,63.12,79.57,63.73,80.9z"/>
	<path d="M59.7,100.45c-3.7-2.35-6.83-5.48-9.16-9.16l-10.21,5.89c3.39,5.47,8.01,10.09,13.48,13.47L59.7,100.45z"/>
	<path d="M60.9,98.37l5.91-10.23c-1.56-1.07-2.9-2.41-3.96-3.95l-10.23,5.9C54.74,93.41,57.57,96.24,60.9,98.37z"/>
	<path d="M68.01,86.06l4.2-7.28l-7.29,4.21C65.77,84.18,66.81,85.21,68.01,86.06z"/>
	<path d="M74.3,105.01c-4.38-0.18-8.65-1.33-12.51-3.36l-5.89,10.21c5.67,3.04,11.98,4.73,18.41,4.92L74.3,105.01z"/>
	<path d="M74.3,102.61V90.79c-1.88-0.15-3.71-0.64-5.41-1.44l-5.9,10.22C66.48,101.39,70.34,102.43,74.3,102.61z"/>
	<path d="M74.3,88.39v-8.41l-4.21,7.29C71.42,87.88,72.84,88.25,74.3,88.39z"/>
	<path d="M88.01,99.58L82.1,89.34c-1.7,0.81-3.53,1.3-5.41,1.45v11.81C80.63,102.43,84.5,101.4,88.01,99.58z"/>
	<path d="M80.9,87.26l-4.21-7.28v8.41C78.15,88.26,79.57,87.88,80.9,87.26z"/>
	<path d="M52.62,112.73c-5.83-3.59-10.75-8.51-14.36-14.35l-10.2,5.89c4.63,7.62,11.04,14.03,18.66,18.66L52.62,112.73z"/>
	<path d="M98.38,38.27c5.83,3.59,10.75,8.51,14.36,14.35l10.2-5.89c-4.63-7.62-11.04-14.03-18.66-18.66L98.38,38.27z"/>
</g>
<g id="Lines">
	<circle class="st0" cx="75.5" cy="75.5" r="14.17"/>
	<circle class="st0" cx="75.5" cy="75.5" r="28.35"/>
	<circle class="st0" cx="75.5" cy="75.5" r="42.52"/>
	<circle class="st0" cx="75.5" cy="75.5" r="56.69"/>
	<line class="st0" x1="75.5" y1="75.5" x2="75.5" y2="4.63"/>
	<line class="st0" x1="75.5" y1="75.5" x2="40.07" y2="14.13"/>
	<line class="st0" x1="75.5" y1="75.5" x2="14.13" y2="40.07"/>
	<line class="st0" x1="75.5" y1="75.5" x2="4.63" y2="75.5"/>
	<line class="st0" x1="75.5" y1="75.5" x2="14.13" y2="110.93"/>
	<line class="st0" x1="75.5" y1="75.5" x2="40.07" y2="136.87"/>
	<line class="st0" x1="75.5" y1="75.5" x2="75.5" y2="146.36"/>
	<line class="st0" x1="75.5" y1="75.5" x2="110.93" y2="136.87"/>
	<line class="st0" x1="75.5" y1="75.5" x2="136.87" y2="110.93"/>
	<line class="st0" x1="75.5" y1="75.5" x2="146.36" y2="75.5"/>
	<line class="st0" x1="75.5" y1="75.5" x2="136.87" y2="40.07"/>
	<line class="st0" x1="75.5" y1="75.5" x2="110.93" y2="14.13"/>
</g>
</svg>
