<?xml version="1.0" encoding="utf-8"?>
<!-- Generator: Adobe Illustrator 28.0.0, SVG Export Plug-In . SVG Version: 6.00 Build 0)  -->
<svg version="1.1" id="Layer_1" xmlns="http://www.w3.org/2000/svg" xmlns:xlink="http://www.w3.org/1999/xlink" x="0px" y="0px"
	 viewBox="0 0 151 151" style="enable-background:new 0 0 151 151;" xml:space="preserve">
<style type="text/css">
	.st0{fill:none;stroke:#000000;stroke-linecap:round;stroke-miterlimit:10;}
</style>
<g id="Lines">
	<circle class="st0" cx="75.5" cy="75.5" r="14.17"/>
	<circle class="st0" cx="75.5" cy="75.5" r="28.35"/>
	<circle class="st0" cx="75.5" cy="75.5" r="42.52"/>
	<circle class="st0" cx="75.5" cy="75.5" r="56.69"/>
	<line class="st0" x1="75.5" y1="75.5" x2="75.5" y2="4.63"/>
	<line class="st0" x1="75.5" y1="75.5" x2="40.07" y2="14.13"/>
	<line class="st0" x1="75.5" y1="75.5" x2="14.13" y2="40.07"/>
	<line class="st0" x1="75.5" y1="75.5" x2="4.63" y2="75.5"/>
	<line class="st0" x1="75.5" y1="75.5" x2="14.13" y2="110.93"/>
	<line class="st0" x1="75.5" y1="75.5" x2="40.07" y2="136.87"/>
	<line class="st0" x1="75.5" y1="75.5" x2="75.5" y2="146.36"/>
	<line class="st0" x1="75.5" y1="75.5" x2="110.93" y2="136.87"/>
	<line class="st0" x1="75.5" y1="75.5" x2="136.87" y2="110.93"/>
	<line class="st0" x1="75.5" y1="75.5" x2="146.36" y2="75.5"/>
	<line class="st0" x1="75.5" y1="75.5" x2="136.87" y2="40.07"/>
	<line class="st0" x1="75.5" y1="75.5" x2="110.93" y2="14.13"/>
</g>
</svg>
